# Blender v2.80 (sub 75) OBJ File: 'simplescene.blend'
# www.blender.org
mtllib rotsimplescene.mtl
o Plane.003
v -4.054403 0.000000 -7.234705
v -4.054403 0.000000 3.511070
v 6.691372 0.000000 -7.234705
v 6.691372 0.000000 3.511070
vt 1.000000 0.000000
vt 0.000000 1.000000
vt 0.000000 0.000000
vt 1.000000 1.000000
vn 0.0000 1.0000 0.0000
usemtl None
s off
f 2/1/1 3/2/1 1/3/1
f 2/1/1 4/4/1 3/2/1
o Plane.005_Plane.006
v 6.685971 4.809027 3.510937
v 6.685971 4.809027 -7.217950
v 6.685971 0.006436 3.510937
v 6.685971 0.006436 -7.217950
v -4.068386 -0.012984 -7.204033
v -4.068386 -0.012984 3.522965
v -4.068386 4.789607 -7.204033
v -4.068386 4.789607 3.522965
v -4.054270 4.809025 -7.254842
v 6.674618 4.809026 -7.254840
v -4.054270 0.006436 -7.254841
v 6.674618 0.006436 -7.254840
vt 1.000000 0.000000
vt 0.000000 1.000000
vt 0.000000 0.000000
vt 1.000000 0.000000
vt 0.000000 1.000000
vt 0.000000 0.000000
vt 1.000000 0.000000
vt 0.000000 1.000000
vt 0.000000 0.000000
vt 1.000000 1.000000
vt 1.000000 1.000000
vt 1.000000 1.000000
vn -1.0000 0.0000 -0.0000
vn 0.0000 0.0000 -1.0000
usemtl None
s off
f 7/5/2 6/6/2 8/7/2
f 10/8/2 11/9/2 9/10/2
f 15/11/3 14/12/3 16/13/3
f 7/5/2 5/14/2 6/6/2
f 10/8/2 12/15/2 11/9/2
f 15/11/3 13/16/3 14/12/3
o Cube_Cube.002
v 3.158340 0.031593 -2.763723
v 3.158340 2.031593 -2.763723
v 1.659847 0.031593 -1.439141
v 1.659847 2.031593 -1.439141
v 1.833758 0.031593 -4.262217
v 1.833758 2.031593 -4.262217
v 0.335265 0.031593 -2.937634
v 0.335265 2.031593 -2.937634
vt 0.625000 0.000000
vt 0.375000 0.250000
vt 0.375000 0.000000
vt 0.625000 0.250000
vt 0.375000 0.500000
vt 0.625000 0.500000
vt 0.375000 0.750000
vt 0.625000 0.750000
vt 0.375000 1.000000
vt 0.125000 0.750000
vt 0.125000 0.500000
vt 0.875000 0.500000
vt 0.625000 1.000000
vt 0.875000 0.750000
vn 0.6623 0.0000 0.7492
vn -0.7492 0.0000 0.6623
vn -0.6623 0.0000 -0.7492
vn 0.7492 0.0000 -0.6623
vn 0.0000 -1.0000 -0.0000
vn 0.0000 1.0000 0.0000
usemtl None
s off
f 18/17/4 19/18/4 17/19/4
f 20/20/5 23/21/5 19/18/5
f 24/22/6 21/23/6 23/21/6
f 22/24/7 17/25/7 21/23/7
f 23/21/8 17/26/8 19/27/8
f 20/28/9 22/24/9 24/22/9
f 18/17/4 20/20/4 19/18/4
f 20/20/5 24/22/5 23/21/5
f 24/22/6 22/24/6 21/23/6
f 22/24/7 18/29/7 17/25/7
f 23/21/8 21/23/8 17/26/8
f 20/28/9 18/30/9 22/24/9
o Plane
v -4.057342 0.191915 -4.366708
v -4.057342 0.191915 0.085371
v -4.057342 4.643993 -4.366708
v -4.057342 4.643993 0.085371
vt 1.000000 0.000000
vt 0.000000 1.000000
vt 0.000000 0.000000
vt 1.000000 1.000000
vn -1.0000 -0.0000 -0.0000
usemtl Material.001
s off
f 26/31/10 27/32/10 25/33/10
f 26/31/10 28/34/10 27/32/10
